<svg width="216" height="248" viewBox="0 0 216 248" fill="none" xmlns="http://www.w3.org/2000/svg">
<g filter="url(#filter0_i_18_40)">
<path d="M185.862 57.4092C172.232 64.3139 148.482 70 108 70C67.5181 70 43.7678 64.3139 30.1377 57.4092L28.9023 56.7661C20.9161 52.484 16.677 47.7971 14.6359 43.7564C13.4924 41.4928 13.0387 39.4319 13.0024 37.7585L13 37.5083L13.0024 37.2582L13.022 36.7981C13.3279 32.1042 15.8442 26.716 27.9023 20.2506L29.1377 19.6074C42.3418 12.9186 66.0436 9.35714 104.254 9.01709L108 9L111.746 9.01709C149.956 9.35714 173.658 12.9186 186.862 19.6074L188.098 20.2506C200.156 26.716 202.672 32.1042 202.978 36.7981L202.998 37.2582L203 37.5083L202.998 37.7585C202.961 39.4319 202.508 41.4928 201.364 43.7564C199.323 47.7971 195.084 52.484 187.098 56.7661L185.862 57.4092Z" fill="url(#paint0_linear_18_40)"/>
</g>
<defs>
<filter id="filter0_i_18_40" x="13" y="9" width="190" height="66.1457" filterUnits="userSpaceOnUse" color-interpolation-filters="sRGB">
<feFlood flood-opacity="0" result="BackgroundImageFix"/>
<feBlend mode="normal" in="SourceGraphic" in2="BackgroundImageFix" result="shape"/>
<feColorMatrix in="SourceAlpha" type="matrix" values="0 0 0 0 0 0 0 0 0 0 0 0 0 0 0 0 0 0 127 0" result="hardAlpha"/>
<feOffset dy="5.14573"/>
<feGaussianBlur stdDeviation="2.57286"/>
<feComposite in2="hardAlpha" operator="arithmetic" k2="-1" k3="1"/>
<feColorMatrix type="matrix" values="0 0 0 0 0 0 0 0 0 0 0 0 0 0 0 0 0 0 0.12 0"/>
<feBlend mode="normal" in2="shape" result="effect1_innerShadow_18_40"/>
</filter>
<linearGradient id="paint0_linear_18_40" x1="13" y1="37.5083" x2="203.001" y2="37.5083" gradientUnits="userSpaceOnUse">
<stop stop-color="#808080"/>
<stop offset="0.15" stop-color="#C7C7C7"/>
<stop offset="0.5" stop-color="#909090"/>
<stop offset="0.85" stop-color="#C7C7C7"/>
<stop offset="1" stop-color="#808080"/>
</linearGradient>
</defs>
</svg>
