<svg width="256" height="256" viewBox="0 0 256 256" fill="none" xmlns="http://www.w3.org/2000/svg">
<g clip-path="url(#clip0_10_24)">
<path d="M242.324 7.99609C238.061 7.09058 234.296 7.58497 231.215 9.69531C225.858 13.3665 220.499 17.3857 215.148 21.7539C212.7 23.7529 210.416 24.5254 208.246 24.3438C206.052 24.1599 203.7 22.9801 201.191 20.5117C198.413 17.778 195.539 15.933 192.566 15.0977C189.565 14.2549 186.558 14.4713 183.602 15.7188L179.688 17.2305C175.789 18.5994 171.899 19.5548 168.016 20.0898C162.793 20.8094 157.568 21.0043 152.348 20.6875C146.77 20.3496 141.212 21.4098 135.695 23.8281L134.008 24.3789C132.318 24.7488 130.642 24.5499 128.934 23.7812C126.598 22.7289 124.118 20.5764 121.539 17.125C118.79 13.445 115.834 11.0655 112.621 10.4922C109.317 9.9032 106.192 11.2906 103.328 14.1016L101.395 15.8945C96.8985 19.824 92.5088 21.9706 88.2344 22.4922C82.8464 23.1498 77.4569 24.1791 72.0742 25.5977C67.0252 26.9279 61.9903 26.8413 56.9336 25.3281C51.7989 23.7912 46.6252 21.1771 41.418 17.4531L39.2617 16.0938C37.0952 14.9127 34.8774 14.2528 32.6172 14.1719C29.5973 14.0647 26.6369 14.9967 23.7695 16.8438L21.8477 18.0039C17.3785 20.5293 12.969 21.78 8.60547 21.8242C6.02053 21.8504 4.2504 21.5633 3.15625 21.0859C2.16741 20.6543 1.87737 20.1539 1.82031 19.6094L1.59766 15.9062L1.51562 14.5H0.00390625L-0.582031 14.6172C-1.12137 14.8445 -1.49609 15.378 -1.49609 16C-1.49609 16.2099 -1.44502 16.4046 -1.36719 16.5859L-1.17969 19.7969V19.832C-1.01469 21.7418 0.194416 23.0729 1.94922 23.8398C3.62179 24.5699 5.90623 24.8519 8.64062 24.8242C13.5856 24.7732 18.4849 23.3515 23.3242 20.6172L25.3867 19.3633C27.839 17.7833 30.212 17.0902 32.5117 17.1719C34.2391 17.234 36.0108 17.7366 37.832 18.7305L39.6719 19.8906C45.1006 23.7733 50.5651 26.5519 56.0664 28.1992C61.6482 29.87 67.2581 29.977 72.8477 28.5039C78.1004 27.1198 83.3502 26.1093 88.5977 25.4688C93.6336 24.8542 98.5607 22.3535 103.375 18.1445L105.426 16.2461C107.881 13.8366 110.08 13.0867 112.094 13.4453C114.201 13.8213 116.566 15.4775 119.137 18.918C121.876 22.5836 124.721 25.1812 127.703 26.5234C130.748 27.8938 133.852 27.9075 136.902 26.5703C142.024 24.3256 147.111 23.3803 152.172 23.6875C157.59 24.0162 163.01 23.8009 168.426 23.0547C172.52 22.4905 176.605 21.4871 180.684 20.0547L184.762 18.4844C187.124 17.4867 189.441 17.3298 191.758 17.9805C194.103 18.6396 196.555 20.1577 199.094 22.6562C201.904 25.4199 204.876 27.0821 208 27.3438C211.146 27.6056 214.178 26.4274 217.047 24.0859C222.336 19.7676 227.62 15.7887 232.902 12.168C235.14 10.6341 238.021 10.1553 241.703 10.9375C244.486 11.5295 247.683 12.8358 251.301 14.9102L255.074 17.2539L255.449 17.5H256C256.828 17.5 257.5 16.8284 257.5 16C257.5 15.3427 257.069 14.8082 256.48 14.6055C251.212 11.1333 246.493 8.88196 242.324 7.99609Z" fill="black"/>
<path d="M169.254 52.832C170.976 52.4051 172.67 52.7307 174.246 53.6758L176.016 54.6016C177.776 55.3982 179.499 55.7921 181.195 55.8086C183.052 55.826 184.707 56.834 186.141 58.375C187.576 59.9188 188.938 62.1445 190.254 64.9609L191.156 66.6953C191.449 67.1978 191.736 67.6299 192.012 67.9844C192.568 68.6989 193.025 69.041 193.348 69.1797C193.611 69.2921 193.825 69.2897 194.086 69.1797C194.406 69.0435 194.865 68.7087 195.422 67.9961L197.449 65.6523C199.5 63.521 201.637 62.0421 203.871 61.3398C206.468 60.5239 209.066 59.7991 211.664 59.1602L212.988 58.9844C214.289 58.9698 215.551 59.4064 216.727 60.2031C218.253 61.2388 219.665 62.8994 221.004 65.043L221.871 66.2383C222.653 67.1563 223.202 67.3205 223.488 67.3047C223.696 67.2913 224.043 67.1817 224.52 66.7539C225.001 66.3209 225.552 65.6179 226.148 64.5859C227.472 62.2983 228.99 60.5566 230.812 59.9336C232.857 59.2366 234.726 60.0946 236.238 61.6797C237.364 62.8588 238.269 63.1983 238.969 63.1797C239.681 63.1604 240.614 62.7525 241.758 61.4922C243.196 59.9092 244.893 58.8795 246.82 59.0078C248.712 59.1338 250.345 60.3525 251.742 62.0781L252.586 63.0625C252.847 63.3435 253.086 63.576 253.301 63.7656C253.468 63.913 253.632 63.9904 253.746 64.0703L253.758 64.0469L254.426 60.707L254.672 59.5H255.996L256.582 59.6172C257.121 59.8445 257.496 60.378 257.496 61C257.496 61.2742 257.402 61.5171 257.273 61.7383L256.688 64.6914L256.676 64.7031V64.7266C256.518 65.407 256.231 66.1746 255.621 66.707C254.904 67.3317 254.019 67.4045 253.242 67.1758C252.548 66.9708 251.899 66.5257 251.32 66.0156C251.021 65.7516 250.712 65.444 250.395 65.1016L249.41 63.9648C248.238 62.5172 247.299 62.0532 246.621 62.0078C245.981 61.9652 245.103 62.2629 243.973 63.5078C242.547 65.0791 240.908 66.1295 239.051 66.1797C237.182 66.2301 235.514 65.2657 234.07 63.7539C233.014 62.647 232.311 62.5908 231.785 62.7695C231.04 63.0235 229.983 63.944 228.738 66.0977C228.053 67.2826 227.324 68.2736 226.523 68.9922C225.716 69.7166 224.764 70.2234 223.688 70.293C222.044 70.3985 220.669 69.476 219.527 68.1133L218.461 66.6367C217.231 64.6679 216.081 63.3938 215.039 62.6875C214.291 62.1804 213.624 61.9726 213 61.9844L212.379 62.0664C209.841 62.6904 207.301 63.4013 204.762 64.1992C203.142 64.7088 201.421 65.8426 199.617 67.7148L197.789 69.8359C197.062 70.7662 196.232 71.5353 195.27 71.9453C194.249 72.3789 193.17 72.3717 192.152 71.9336C191.192 71.5191 190.359 70.7573 189.633 69.8242C188.899 68.8808 188.205 67.672 187.535 66.2383C186.281 63.5538 185.071 61.6448 183.938 60.4258C182.801 59.2043 181.885 58.8156 181.172 58.8086C179.013 58.7883 176.88 58.2906 174.785 57.3438L172.699 56.2539C171.706 55.6586 170.828 55.528 169.98 55.7383C169.309 55.9049 168.557 56.3099 167.73 57.0391L166.875 57.8828C164.284 60.7212 161.69 63.3901 159.094 65.875C156.37 68.4818 153.488 70.0459 150.469 70.3047C147.751 70.5372 145.034 70.3599 142.324 69.7773C139.916 69.2591 137.506 69.1517 135.105 69.4492C132.45 69.778 129.793 69.8692 127.137 69.7305C124.583 69.5971 122.026 69.5 119.473 69.4492C116.644 69.3921 114.035 67.806 111.633 65.1367L110.613 63.9297C109.446 62.4526 108.593 62.1467 108.047 62.1836C107.597 62.215 106.96 62.5018 106.16 63.3555L105.305 64.4102C102.668 68.1155 99.954 70.8625 97.1367 72.5195C94.139 74.2821 91.0167 74.4005 87.9727 72.8242C85.501 71.5445 83.0423 70.6204 80.6016 70.0352C78.928 69.6332 77.3984 68.5556 75.9961 67.0352C74.5902 65.5105 73.2372 63.4499 71.918 60.9062C71.3138 59.741 70.7797 59.0866 70.3828 58.7734C70.0581 58.5178 69.9464 58.5657 69.8906 58.5859C69.702 58.6521 69.2821 58.9242 68.707 59.7812C68.1534 60.6065 67.5593 61.8139 66.9375 63.4492C65.642 66.8562 64.2493 69.413 62.6719 70.8086C61.8509 71.5346 60.8738 72.038 59.7656 72.0508C58.9329 72.0594 58.1701 71.7955 57.4922 71.3594L56.8477 70.8672C54.4941 68.8401 52.3279 68.1186 50.2969 68.3594C47.5306 68.6893 44.7617 68.4828 42.0117 67.7383C39.8944 67.1649 37.8104 66.1612 35.7656 64.75L33.7383 63.2031C33.2525 62.7999 32.863 62.6361 32.5664 62.5938C32.2868 62.5549 31.9671 62.6097 31.5703 62.8281C30.6907 63.3135 29.5657 64.5654 28.3125 66.9883C27.6341 68.2997 26.9209 69.3965 26.1445 70.2109C25.3719 71.0214 24.4532 71.65 23.3789 71.8281C21.0977 72.2036 19.3168 70.4719 18 68.3594C16.7256 66.3149 15.4521 64.3541 14.1797 62.4766L10.3594 57.0859C9.85597 56.4084 9.38984 56.1021 8.98828 55.9844C8.59331 55.8695 8.06608 55.8824 7.34766 56.1836C6.2044 56.664 4.77948 57.7886 3.08203 59.7109L1.28906 61.9141L0.84375 62.5H0C-0.828427 62.5 -1.5 61.8284 -1.5 61C-1.5 60.4913 -1.23103 60.0642 -0.84375 59.793C1.63128 56.5917 3.96295 54.3522 6.1875 53.418C7.37909 52.9184 8.61815 52.7527 9.82031 53.1016C11.015 53.449 11.9938 54.2436 12.7734 55.293C15.3703 58.7902 17.9543 62.6244 20.543 66.7773C21.7962 68.7879 22.5979 68.9108 22.8867 68.8633C23.0955 68.8288 23.4656 68.6727 23.9766 68.1367C24.484 67.6034 25.0474 66.7752 25.6523 65.6055C26.9686 63.0614 28.4277 61.1236 30.1172 60.1914C31.0034 59.7032 31.973 59.4894 32.9766 59.6289C33.9628 59.7667 34.853 60.2346 35.6484 60.8945L37.4766 62.2773C39.2862 63.526 41.0598 64.3735 42.7969 64.8438L44.5898 65.2422C46.3755 65.5513 48.1556 65.5945 49.9336 65.3828C53.0408 65.0123 56.0205 66.196 58.8047 68.5938L59.3789 68.9688C59.5295 69.0321 59.6443 69.0511 59.7305 69.0508C59.9073 69.0487 60.2274 68.9807 60.6914 68.5703C61.6834 67.6929 62.8627 65.7333 64.1367 62.3828C64.7996 60.6397 65.4916 59.195 66.2227 58.1055C66.932 57.0496 67.7999 56.1338 68.8945 55.75C70.1243 55.3197 71.2955 55.6679 72.2461 56.418C73.1338 57.1187 73.8975 58.2108 74.5781 59.5234C75.8274 61.9325 77.0368 63.7475 78.1992 65.0078C79.3658 66.2723 80.4095 66.9025 81.3047 67.1172L83.3203 67.668C85.3403 68.2924 87.3531 69.1271 89.3555 70.1641C91.4496 71.2477 93.4729 71.188 95.6133 69.9297C97.9349 68.5642 100.365 66.1805 102.867 62.6641L103.934 61.3281C105.062 60.1149 106.358 59.2984 107.836 59.1953C109.858 59.0544 111.569 60.2946 112.969 62.0664L113.883 63.1445C115.977 65.4681 117.863 66.4147 119.531 66.4492C122.116 66.5006 124.704 66.5956 127.289 66.7305C129.771 66.86 132.259 66.7805 134.742 66.4727C137.479 66.1335 140.216 66.2493 142.945 66.8359C145.372 67.3582 147.804 67.5237 150.223 67.3164C152.341 67.1333 154.606 66.0164 157.02 63.707C159.563 61.2723 162.112 58.6588 164.66 55.8672L165.727 54.8008C166.825 53.8285 168 53.1442 169.254 52.832Z" fill="black"/>
<path d="M242.324 97.9961C238.061 97.0906 234.296 97.585 231.215 99.6953C225.858 103.367 220.499 107.386 215.148 111.754C212.7 113.753 210.416 114.525 208.246 114.344C206.052 114.16 203.7 112.98 201.191 110.512C198.413 107.778 195.539 105.933 192.566 105.098C189.565 104.255 186.558 104.471 183.602 105.719L179.688 107.23C175.789 108.599 171.899 109.555 168.016 110.09C162.793 110.809 157.568 111.004 152.348 110.688C146.77 110.35 141.212 111.41 135.695 113.828L134.008 114.379C132.318 114.749 130.642 114.55 128.934 113.781C126.598 112.729 124.118 110.576 121.539 107.125C118.79 103.445 115.834 101.066 112.621 100.492C109.317 99.9032 106.192 101.291 103.328 104.102L101.395 105.895C96.8985 109.824 92.5088 111.971 88.2344 112.492C82.8464 113.15 77.4569 114.179 72.0742 115.598C67.0252 116.928 61.9903 116.841 56.9336 115.328C51.7989 113.791 46.6252 111.177 41.418 107.453L39.2617 106.094C37.0952 104.913 34.8774 104.253 32.6172 104.172C29.5973 104.065 26.6369 104.997 23.7695 106.844L21.8477 108.004C17.3785 110.529 12.969 111.78 8.60547 111.824C6.02053 111.85 4.2504 111.563 3.15625 111.086C2.16741 110.654 1.87737 110.154 1.82031 109.609L1.59766 105.906L1.51562 104.5H0.00390625L-0.582031 104.617C-1.12137 104.844 -1.49609 105.378 -1.49609 106C-1.49609 106.21 -1.44502 106.405 -1.36719 106.586L-1.17969 109.797V109.832C-1.01469 111.742 0.194416 113.073 1.94922 113.84C3.62179 114.57 5.90623 114.852 8.64062 114.824C13.5856 114.773 18.4849 113.351 23.3242 110.617L25.3867 109.363C27.839 107.783 30.212 107.09 32.5117 107.172C34.2391 107.234 36.0108 107.737 37.832 108.73L39.6719 109.891C45.1006 113.773 50.5651 116.552 56.0664 118.199C61.6482 119.87 67.2581 119.977 72.8477 118.504C78.1004 117.12 83.3502 116.109 88.5977 115.469C93.6336 114.854 98.5607 112.354 103.375 108.145L105.426 106.246C107.881 103.837 110.08 103.087 112.094 103.445C114.201 103.821 116.566 105.478 119.137 108.918C121.876 112.584 124.721 115.181 127.703 116.523C130.748 117.894 133.852 117.907 136.902 116.57C142.024 114.326 147.111 113.38 152.172 113.688C157.59 114.016 163.01 113.801 168.426 113.055C172.52 112.491 176.605 111.487 180.684 110.055L184.762 108.484C187.124 107.487 189.441 107.33 191.758 107.98C194.103 108.64 196.555 110.158 199.094 112.656C201.904 115.42 204.876 117.082 208 117.344C211.146 117.606 214.178 116.427 217.047 114.086C222.336 109.768 227.62 105.789 232.902 102.168C235.14 100.634 238.021 100.155 241.703 100.938C244.486 101.529 247.683 102.836 251.301 104.91L255.074 107.254L255.449 107.5H256C256.828 107.5 257.5 106.828 257.5 106C257.5 105.343 257.069 104.808 256.48 104.605C251.212 101.133 246.493 98.882 242.324 97.9961Z" fill="black"/>
<path d="M242.324 187.996C238.061 187.091 234.296 187.585 231.215 189.695C225.858 193.367 220.499 197.386 215.148 201.754C212.7 203.753 210.416 204.525 208.246 204.344C206.052 204.16 203.7 202.98 201.191 200.512C198.413 197.778 195.539 195.933 192.566 195.098C189.565 194.255 186.558 194.471 183.602 195.719L179.688 197.23C175.789 198.599 171.899 199.555 168.016 200.09C162.793 200.809 157.568 201.004 152.348 200.688C146.77 200.35 141.212 201.41 135.695 203.828L134.008 204.379C132.318 204.749 130.642 204.55 128.934 203.781C126.598 202.729 124.118 200.576 121.539 197.125C118.79 193.445 115.834 191.066 112.621 190.492C109.317 189.903 106.192 191.291 103.328 194.102L101.395 195.895C96.8985 199.824 92.5088 201.971 88.2344 202.492C82.8464 203.15 77.4569 204.179 72.0742 205.598C67.0252 206.928 61.9903 206.841 56.9336 205.328C51.7989 203.791 46.6252 201.177 41.418 197.453L39.2617 196.094C37.0952 194.913 34.8774 194.253 32.6172 194.172C29.5973 194.065 26.6369 194.997 23.7695 196.844L21.8477 198.004C17.3785 200.529 12.969 201.78 8.60547 201.824C6.02053 201.85 4.2504 201.563 3.15625 201.086C2.16741 200.654 1.87737 200.154 1.82031 199.609L1.59766 195.906L1.51562 194.5H0.00390625L-0.582031 194.617C-1.12137 194.844 -1.49609 195.378 -1.49609 196C-1.49609 196.21 -1.44502 196.405 -1.36719 196.586L-1.17969 199.797V199.832C-1.01469 201.742 0.194416 203.073 1.94922 203.84C3.62179 204.57 5.90623 204.852 8.64062 204.824C13.5856 204.773 18.4849 203.351 23.3242 200.617L25.3867 199.363C27.839 197.783 30.212 197.09 32.5117 197.172C34.2391 197.234 36.0108 197.737 37.832 198.73L39.6719 199.891C45.1006 203.773 50.5651 206.552 56.0664 208.199C61.6482 209.87 67.2581 209.977 72.8477 208.504C78.1004 207.12 83.3502 206.109 88.5977 205.469C93.6336 204.854 98.5607 202.354 103.375 198.145L105.426 196.246C107.881 193.837 110.08 193.087 112.094 193.445C114.201 193.821 116.566 195.478 119.137 198.918C121.876 202.584 124.721 205.181 127.703 206.523C130.748 207.894 133.852 207.907 136.902 206.57C142.024 204.326 147.111 203.38 152.172 203.688C157.59 204.016 163.01 203.801 168.426 203.055C172.52 202.491 176.605 201.487 180.684 200.055L184.762 198.484C187.124 197.487 189.441 197.33 191.758 197.98C194.103 198.64 196.555 200.158 199.094 202.656C201.904 205.42 204.876 207.082 208 207.344C211.146 207.606 214.178 206.427 217.047 204.086C222.336 199.768 227.62 195.789 232.902 192.168C235.14 190.634 238.021 190.155 241.703 190.938C244.486 191.529 247.683 192.836 251.301 194.91L255.074 197.254L255.449 197.5H256C256.828 197.5 257.5 196.828 257.5 196C257.5 195.343 257.069 194.808 256.48 194.605C251.212 191.133 246.493 188.882 242.324 187.996Z" fill="black"/>
<path d="M169.254 142.832C170.976 142.405 172.67 142.731 174.246 143.676L176.016 144.602C177.776 145.398 179.499 145.792 181.195 145.809C183.052 145.826 184.707 146.834 186.141 148.375C187.576 149.919 188.938 152.145 190.254 154.961L191.156 156.695C191.449 157.198 191.736 157.63 192.012 157.984C192.568 158.699 193.025 159.041 193.348 159.18C193.611 159.292 193.825 159.29 194.086 159.18C194.406 159.044 194.865 158.709 195.422 157.996L197.449 155.652C199.5 153.521 201.637 152.042 203.871 151.34C206.468 150.524 209.066 149.799 211.664 149.16L212.988 148.984C214.289 148.97 215.551 149.406 216.727 150.203C218.253 151.239 219.665 152.899 221.004 155.043L221.871 156.238C222.653 157.156 223.202 157.32 223.488 157.305C223.696 157.291 224.043 157.182 224.52 156.754C225.001 156.321 225.552 155.618 226.148 154.586C227.472 152.298 228.99 150.557 230.812 149.934C232.857 149.237 234.726 150.095 236.238 151.68C237.364 152.859 238.269 153.198 238.969 153.18C239.681 153.16 240.614 152.753 241.758 151.492C243.196 149.909 244.893 148.88 246.82 149.008C248.712 149.134 250.345 150.352 251.742 152.078L252.586 153.062C252.847 153.344 253.086 153.576 253.301 153.766C253.468 153.913 253.632 153.99 253.746 154.07L253.758 154.047L254.426 150.707L254.672 149.5H255.996L256.582 149.617C257.121 149.844 257.496 150.378 257.496 151C257.496 151.274 257.402 151.517 257.273 151.738L256.688 154.691L256.676 154.703V154.727C256.518 155.407 256.231 156.175 255.621 156.707C254.904 157.332 254.019 157.405 253.242 157.176C252.548 156.971 251.899 156.526 251.32 156.016C251.021 155.752 250.712 155.444 250.395 155.102L249.41 153.965C248.238 152.517 247.299 152.053 246.621 152.008C245.981 151.965 245.103 152.263 243.973 153.508C242.547 155.079 240.908 156.129 239.051 156.18C237.182 156.23 235.514 155.266 234.07 153.754C233.014 152.647 232.311 152.591 231.785 152.77C231.04 153.023 229.983 153.944 228.738 156.098C228.053 157.283 227.324 158.274 226.523 158.992C225.716 159.717 224.764 160.223 223.688 160.293C222.044 160.398 220.669 159.476 219.527 158.113L218.461 156.637C217.231 154.668 216.081 153.394 215.039 152.688C214.291 152.18 213.624 151.973 213 151.984L212.379 152.066C209.841 152.69 207.301 153.401 204.762 154.199C203.142 154.709 201.421 155.843 199.617 157.715L197.789 159.836C197.062 160.766 196.232 161.535 195.27 161.945C194.249 162.379 193.17 162.372 192.152 161.934C191.192 161.519 190.359 160.757 189.633 159.824C188.899 158.881 188.205 157.672 187.535 156.238C186.281 153.554 185.071 151.645 183.938 150.426C182.801 149.204 181.885 148.816 181.172 148.809C179.013 148.788 176.88 148.291 174.785 147.344L172.699 146.254C171.706 145.659 170.828 145.528 169.98 145.738C169.309 145.905 168.557 146.31 167.73 147.039L166.875 147.883C164.284 150.721 161.69 153.39 159.094 155.875C156.37 158.482 153.488 160.046 150.469 160.305C147.751 160.537 145.034 160.36 142.324 159.777C139.916 159.259 137.506 159.152 135.105 159.449C132.45 159.778 129.793 159.869 127.137 159.73C124.583 159.597 122.026 159.5 119.473 159.449C116.644 159.392 114.035 157.806 111.633 155.137L110.613 153.93C109.446 152.453 108.593 152.147 108.047 152.184C107.597 152.215 106.96 152.502 106.16 153.355L105.305 154.41C102.668 158.116 99.954 160.863 97.1367 162.52C94.139 164.282 91.0167 164.401 87.9727 162.824C85.501 161.544 83.0423 160.62 80.6016 160.035C78.928 159.633 77.3984 158.556 75.9961 157.035C74.5902 155.51 73.2372 153.45 71.918 150.906C71.3138 149.741 70.7797 149.087 70.3828 148.773C70.0581 148.518 69.9464 148.566 69.8906 148.586C69.702 148.652 69.2821 148.924 68.707 149.781C68.1534 150.607 67.5593 151.814 66.9375 153.449C65.642 156.856 64.2493 159.413 62.6719 160.809C61.8509 161.535 60.8738 162.038 59.7656 162.051C58.9329 162.059 58.1701 161.795 57.4922 161.359L56.8477 160.867C54.4941 158.84 52.3279 158.119 50.2969 158.359C47.5306 158.689 44.7617 158.483 42.0117 157.738C39.8944 157.165 37.8104 156.161 35.7656 154.75L33.7383 153.203C33.2525 152.8 32.863 152.636 32.5664 152.594C32.2868 152.555 31.9671 152.61 31.5703 152.828C30.6907 153.313 29.5657 154.565 28.3125 156.988C27.6341 158.3 26.9209 159.396 26.1445 160.211C25.3719 161.021 24.4532 161.65 23.3789 161.828C21.0977 162.204 19.3168 160.472 18 158.359C16.7256 156.315 15.4521 154.354 14.1797 152.477L10.3594 147.086C9.85597 146.408 9.38984 146.102 8.98828 145.984C8.59331 145.87 8.06608 145.882 7.34766 146.184C6.2044 146.664 4.77948 147.789 3.08203 149.711L1.28906 151.914L0.84375 152.5H0C-0.828427 152.5 -1.5 151.828 -1.5 151C-1.5 150.491 -1.23103 150.064 -0.84375 149.793C1.63128 146.592 3.96295 144.352 6.1875 143.418C7.37909 142.918 8.61815 142.753 9.82031 143.102C11.015 143.449 11.9938 144.244 12.7734 145.293C15.3703 148.79 17.9543 152.624 20.543 156.777C21.7962 158.788 22.5979 158.911 22.8867 158.863C23.0955 158.829 23.4656 158.673 23.9766 158.137C24.484 157.603 25.0474 156.775 25.6523 155.605C26.9686 153.061 28.4277 151.124 30.1172 150.191C31.0034 149.703 31.973 149.489 32.9766 149.629C33.9628 149.767 34.853 150.235 35.6484 150.895L37.4766 152.277C39.2862 153.526 41.0598 154.373 42.7969 154.844L44.5898 155.242C46.3755 155.551 48.1556 155.594 49.9336 155.383C53.0408 155.012 56.0205 156.196 58.8047 158.594L59.3789 158.969C59.5295 159.032 59.6443 159.051 59.7305 159.051C59.9073 159.049 60.2274 158.981 60.6914 158.57C61.6834 157.693 62.8627 155.733 64.1367 152.383C64.7996 150.64 65.4916 149.195 66.2227 148.105C66.932 147.05 67.7999 146.134 68.8945 145.75C70.1243 145.32 71.2955 145.668 72.2461 146.418C73.1338 147.119 73.8975 148.211 74.5781 149.523C75.8274 151.933 77.0368 153.748 78.1992 155.008C79.3658 156.272 80.4095 156.903 81.3047 157.117L83.3203 157.668C85.3403 158.292 87.3531 159.127 89.3555 160.164C91.4496 161.248 93.4729 161.188 95.6133 159.93C97.9349 158.564 100.365 156.181 102.867 152.664L103.934 151.328C105.062 150.115 106.358 149.298 107.836 149.195C109.858 149.054 111.569 150.295 112.969 152.066L113.883 153.145C115.977 155.468 117.863 156.415 119.531 156.449C122.116 156.501 124.704 156.596 127.289 156.73C129.771 156.86 132.259 156.78 134.742 156.473C137.479 156.134 140.216 156.249 142.945 156.836C145.372 157.358 147.804 157.524 150.223 157.316C152.341 157.133 154.606 156.016 157.02 153.707C159.563 151.272 162.112 148.659 164.66 145.867L165.727 144.801C166.825 143.829 168 143.144 169.254 142.832Z" fill="black"/>
<path d="M169.254 232.832C170.976 232.405 172.67 232.731 174.246 233.676L176.016 234.602C177.776 235.398 179.499 235.792 181.195 235.809C183.052 235.826 184.707 236.834 186.141 238.375C187.576 239.919 188.938 242.145 190.254 244.961L191.156 246.695C191.449 247.198 191.736 247.63 192.012 247.984C192.568 248.699 193.025 249.041 193.348 249.18C193.611 249.292 193.825 249.29 194.086 249.18C194.406 249.044 194.865 248.709 195.422 247.996L197.449 245.652C199.5 243.521 201.637 242.042 203.871 241.34C206.468 240.524 209.066 239.799 211.664 239.16L212.988 238.984C214.289 238.97 215.551 239.406 216.727 240.203C218.253 241.239 219.665 242.899 221.004 245.043L221.871 246.238C222.653 247.156 223.202 247.32 223.488 247.305C223.696 247.291 224.043 247.182 224.52 246.754C225.001 246.321 225.552 245.618 226.148 244.586C227.472 242.298 228.99 240.557 230.812 239.934C232.857 239.237 234.726 240.095 236.238 241.68C237.364 242.859 238.269 243.198 238.969 243.18C239.681 243.16 240.614 242.753 241.758 241.492C243.196 239.909 244.893 238.88 246.82 239.008C248.712 239.134 250.345 240.352 251.742 242.078L252.586 243.062C252.847 243.344 253.086 243.576 253.301 243.766C253.468 243.913 253.632 243.99 253.746 244.07L253.758 244.047L254.426 240.707L254.672 239.5H255.996L256.582 239.617C257.121 239.844 257.496 240.378 257.496 241C257.496 241.274 257.402 241.517 257.273 241.738L256.688 244.691L256.676 244.703V244.727C256.518 245.407 256.231 246.175 255.621 246.707C254.904 247.332 254.019 247.405 253.242 247.176C252.548 246.971 251.899 246.526 251.32 246.016C251.021 245.752 250.712 245.444 250.395 245.102L249.41 243.965C248.238 242.517 247.299 242.053 246.621 242.008C245.981 241.965 245.103 242.263 243.973 243.508C242.547 245.079 240.908 246.129 239.051 246.18C237.182 246.23 235.514 245.266 234.07 243.754C233.014 242.647 232.311 242.591 231.785 242.77C231.04 243.023 229.983 243.944 228.738 246.098C228.053 247.283 227.324 248.274 226.523 248.992C225.716 249.717 224.764 250.223 223.688 250.293C222.044 250.398 220.669 249.476 219.527 248.113L218.461 246.637C217.231 244.668 216.081 243.394 215.039 242.688C214.291 242.18 213.624 241.973 213 241.984L212.379 242.066C209.841 242.69 207.301 243.401 204.762 244.199C203.142 244.709 201.421 245.843 199.617 247.715L197.789 249.836C197.062 250.766 196.232 251.535 195.27 251.945C194.249 252.379 193.17 252.372 192.152 251.934C191.192 251.519 190.359 250.757 189.633 249.824C188.899 248.881 188.205 247.672 187.535 246.238C186.281 243.554 185.071 241.645 183.938 240.426C182.801 239.204 181.885 238.816 181.172 238.809C179.013 238.788 176.88 238.291 174.785 237.344L172.699 236.254C171.706 235.659 170.828 235.528 169.98 235.738C169.309 235.905 168.557 236.31 167.73 237.039L166.875 237.883C164.284 240.721 161.69 243.39 159.094 245.875C156.37 248.482 153.488 250.046 150.469 250.305C147.751 250.537 145.034 250.36 142.324 249.777C139.916 249.259 137.506 249.152 135.105 249.449C132.45 249.778 129.793 249.869 127.137 249.73C124.583 249.597 122.026 249.5 119.473 249.449C116.644 249.392 114.035 247.806 111.633 245.137L110.613 243.93C109.446 242.453 108.593 242.147 108.047 242.184C107.597 242.215 106.96 242.502 106.16 243.355L105.305 244.41C102.668 248.116 99.954 250.863 97.1367 252.52C94.139 254.282 91.0167 254.401 87.9727 252.824C85.501 251.544 83.0423 250.62 80.6016 250.035C78.928 249.633 77.3984 248.556 75.9961 247.035C74.5902 245.51 73.2372 243.45 71.918 240.906C71.3138 239.741 70.7797 239.087 70.3828 238.773C70.0581 238.518 69.9464 238.566 69.8906 238.586C69.702 238.652 69.2821 238.924 68.707 239.781C68.1534 240.607 67.5593 241.814 66.9375 243.449C65.642 246.856 64.2493 249.413 62.6719 250.809C61.8509 251.535 60.8738 252.038 59.7656 252.051C58.9329 252.059 58.1701 251.795 57.4922 251.359L56.8477 250.867C54.4941 248.84 52.3279 248.119 50.2969 248.359C47.5306 248.689 44.7617 248.483 42.0117 247.738C39.8944 247.165 37.8104 246.161 35.7656 244.75L33.7383 243.203C33.2525 242.8 32.863 242.636 32.5664 242.594C32.2868 242.555 31.9671 242.61 31.5703 242.828C30.6907 243.313 29.5657 244.565 28.3125 246.988C27.6341 248.3 26.9209 249.396 26.1445 250.211C25.3719 251.021 24.4532 251.65 23.3789 251.828C21.0977 252.204 19.3168 250.472 18 248.359C16.7256 246.315 15.4521 244.354 14.1797 242.477L10.3594 237.086C9.85597 236.408 9.38984 236.102 8.98828 235.984C8.59331 235.87 8.06608 235.882 7.34766 236.184C6.2044 236.664 4.77948 237.789 3.08203 239.711L1.28906 241.914L0.84375 242.5H0C-0.828427 242.5 -1.5 241.828 -1.5 241C-1.5 240.491 -1.23103 240.064 -0.84375 239.793C1.63128 236.592 3.96295 234.352 6.1875 233.418C7.37909 232.918 8.61815 232.753 9.82031 233.102C11.015 233.449 11.9938 234.244 12.7734 235.293C15.3703 238.79 17.9543 242.624 20.543 246.777C21.7962 248.788 22.5979 248.911 22.8867 248.863C23.0955 248.829 23.4656 248.673 23.9766 248.137C24.484 247.603 25.0474 246.775 25.6523 245.605C26.9686 243.061 28.4277 241.124 30.1172 240.191C31.0034 239.703 31.973 239.489 32.9766 239.629C33.9628 239.767 34.853 240.235 35.6484 240.895L37.4766 242.277C39.2862 243.526 41.0598 244.373 42.7969 244.844L44.5898 245.242C46.3755 245.551 48.1556 245.594 49.9336 245.383C53.0408 245.012 56.0205 246.196 58.8047 248.594L59.3789 248.969C59.5295 249.032 59.6443 249.051 59.7305 249.051C59.9073 249.049 60.2274 248.981 60.6914 248.57C61.6834 247.693 62.8627 245.733 64.1367 242.383C64.7996 240.64 65.4916 239.195 66.2227 238.105C66.932 237.05 67.7999 236.134 68.8945 235.75C70.1243 235.32 71.2955 235.668 72.2461 236.418C73.1338 237.119 73.8975 238.211 74.5781 239.523C75.8274 241.933 77.0368 243.748 78.1992 245.008C79.3658 246.272 80.4095 246.903 81.3047 247.117L83.3203 247.668C85.3403 248.292 87.3531 249.127 89.3555 250.164C91.4496 251.248 93.4729 251.188 95.6133 249.93C97.9349 248.564 100.365 246.181 102.867 242.664L103.934 241.328C105.062 240.115 106.358 239.298 107.836 239.195C109.858 239.054 111.569 240.295 112.969 242.066L113.883 243.145C115.977 245.468 117.863 246.415 119.531 246.449C122.116 246.501 124.704 246.596 127.289 246.73C129.771 246.86 132.259 246.78 134.742 246.473C137.479 246.134 140.216 246.249 142.945 246.836C145.372 247.358 147.804 247.524 150.223 247.316C152.341 247.133 154.606 246.016 157.02 243.707C159.563 241.272 162.112 238.659 164.66 235.867L165.727 234.801C166.825 233.829 168 233.144 169.254 232.832Z" fill="black"/>
</g>
<defs>
<clipPath id="clip0_10_24">
<rect width="256" height="256" fill="white"/>
</clipPath>
</defs>
</svg>
