<svg width="256" height="256" viewBox="0 0 256 256" fill="none" xmlns="http://www.w3.org/2000/svg">
<g clip-path="url(#clip0_10_24)">
<path d="M242.321 8.0001C238.057 7.09436 234.294 7.58611 231.212 9.69834C225.855 13.3697 220.502 17.3905 215.151 21.7589C212.703 23.7579 210.416 24.5305 208.245 24.3487C206.051 24.1649 203.701 22.9829 201.192 20.5147C198.413 17.7795 195.54 15.9281 192.565 15.0929C189.563 14.2497 186.554 14.4707 183.597 15.7198C178.389 17.9194 173.196 19.3723 168.016 20.086C162.793 20.8057 157.571 21.0064 152.351 20.6896C146.772 20.351 141.216 21.4086 135.698 23.8272C133.429 24.8221 131.211 24.8101 128.936 23.7862C126.598 22.7343 124.123 20.5743 121.542 17.1202C118.792 13.4402 115.836 11.0627 112.623 10.4894C109.318 9.89974 106.193 11.2883 103.329 14.0997C98.1545 19.1788 93.1237 21.8913 88.2383 22.4874C82.849 23.145 77.4622 24.1837 72.0781 25.6026C67.0276 26.9337 61.9879 26.8452 56.9297 25.3312C51.7937 23.7938 46.6217 21.1768 41.4131 17.4513C38.5685 15.4166 35.6291 14.2839 32.6133 14.1769C29.593 14.0696 26.6353 14.9962 23.7676 16.8439C18.6399 20.1475 13.5917 21.7758 8.60449 21.8263C6.01933 21.8524 4.24935 21.5645 3.15527 21.087C2.14859 20.6476 1.86505 20.1361 1.81543 19.5802L1.51367 14.5001H0C-0.82843 14.5001 -1.5 15.1717 -1.5 16.0001C-1.5 16.2201 -1.45034 16.4281 -1.36523 16.6163L-1.17773 19.7931L-1.17578 19.8126L-1.1748 19.8331C-1.00963 21.7439 0.198558 23.0693 1.95508 23.836C3.62757 24.566 5.90063 24.8539 8.63477 24.8263C14.2875 24.7691 19.8803 22.9168 25.3926 19.3653C27.8447 17.7855 30.2072 17.0933 32.5068 17.1749C34.8108 17.2567 37.1917 18.1203 39.667 19.8907C45.0982 23.7755 50.5665 26.5577 56.0703 28.2052C61.6518 29.8758 67.2526 29.9769 72.8418 28.504C78.0976 27.1189 83.351 26.1056 88.6016 25.4649C94.3561 24.7628 99.9653 21.6048 105.431 16.2403C107.886 13.83 110.082 13.083 112.097 13.4425C114.203 13.8185 116.568 15.4758 119.139 18.9161C121.878 22.582 124.722 25.1793 127.704 26.5216C130.749 27.8919 133.852 27.9115 136.902 26.5743C142.024 24.3292 147.107 23.3765 152.169 23.6837C157.588 24.0126 163.008 23.8041 168.425 23.0577C173.885 22.3055 179.332 20.7778 184.764 18.4835C187.126 17.4859 189.438 17.3309 191.755 17.9815C194.1 18.6403 196.548 20.1532 199.088 22.6524C201.899 25.4189 204.87 27.0772 207.995 27.339C211.144 27.6027 214.177 26.4265 217.049 24.0821C222.338 19.7635 227.625 15.7939 232.908 12.173C235.146 10.6393 238.016 10.1525 241.698 10.9347C245.413 11.7237 249.862 13.7912 255.07 17.2501L255.447 17.5001H256C256.828 17.5001 257.5 16.8285 257.5 16.0001C257.5 15.3301 257.06 14.7639 256.454 14.5714C251.199 11.1116 246.481 8.88382 242.321 8.0001Z" fill="black" stroke="white" stroke-opacity="0.2" stroke-width="3" stroke-linecap="round"/>
<path d="M169.259 52.8282C170.981 52.4013 172.67 52.73 174.246 53.6749C176.626 55.1015 178.938 55.7884 181.199 55.8097C183.056 55.8272 184.705 56.8368 186.139 58.378C187.575 59.9223 188.938 62.1464 190.254 64.964C190.868 66.2792 191.456 67.2729 192.007 67.9806C192.565 68.6982 193.02 69.0388 193.343 69.1778C193.61 69.2927 193.826 69.293 194.091 69.1808C194.412 69.0445 194.865 68.708 195.423 67.9942C198.084 64.5871 200.886 62.2762 203.865 61.3399C206.465 60.523 209.066 59.795 211.667 59.1554C213.437 58.7203 215.152 59.1383 216.722 60.2023C218.25 61.2379 219.668 62.8962 221.008 65.0421C222.257 67.0418 223.115 67.3272 223.494 67.3028C223.702 67.2895 224.039 67.1846 224.516 66.7569C224.998 66.3242 225.548 65.6262 226.146 64.5919C227.471 62.3001 228.991 60.554 230.816 59.9317C232.861 59.2349 234.728 60.0928 236.24 61.6778C237.366 62.8574 238.27 63.2006 238.97 63.1817C239.682 63.1625 240.61 62.7574 241.754 61.4972C243.193 59.9117 244.89 58.8845 246.819 59.0128C248.711 59.1387 250.344 60.3486 251.741 62.0743C252.354 62.8308 252.873 63.386 253.303 63.7648C253.475 63.9167 253.621 64.025 253.737 64.1056C253.742 64.088 253.749 64.07 253.754 64.0509L254.673 59.5001H256C256.828 59.5001 257.5 60.1717 257.5 61.0001C257.5 61.2937 257.414 61.5667 257.269 61.798L256.686 64.6866L256.682 64.7071L256.677 64.7286C256.519 65.4098 256.227 66.1737 255.616 66.7062C254.898 67.3317 254.015 67.4097 253.237 67.1798C252.543 66.9746 251.897 66.5253 251.318 66.0148C250.719 65.4858 250.082 64.7933 249.409 63.963C248.237 62.5149 247.298 62.0521 246.62 62.0069C245.98 61.9645 245.106 62.2678 243.976 63.5138C242.55 65.085 240.908 66.1305 239.051 66.1808C237.181 66.2312 235.515 65.2624 234.07 63.7491C233.013 62.6414 232.31 62.5914 231.784 62.7706C231.039 63.0245 229.989 63.9395 228.744 66.0929C228.057 67.281 227.322 68.2705 226.52 68.9903C225.712 69.715 224.763 70.2278 223.687 70.297C221.496 70.4375 219.784 68.7477 218.463 66.6319C217.233 64.6623 216.08 63.3918 215.038 62.6856C214.038 62.0079 213.183 61.8717 212.383 62.0685C209.844 62.6927 207.305 63.404 204.765 64.2023C202.604 64.8813 200.266 66.6681 197.787 69.8409C197.06 70.7722 196.228 71.5318 195.264 71.9415C194.243 72.3748 193.175 72.3716 192.157 71.9337C191.195 71.5196 190.365 70.7567 189.639 69.8224C188.904 68.8779 188.207 67.6695 187.536 66.2335C186.282 63.5489 185.075 61.64 183.941 60.421C182.805 59.1992 181.884 58.8154 181.171 58.8087C178.293 58.7816 175.465 57.903 172.704 56.2481C171.711 55.6525 170.829 55.5302 169.981 55.7403C169.084 55.9628 168.042 56.6043 166.873 57.8849C164.282 60.7232 161.688 63.3853 159.092 65.8702C156.367 68.4779 153.493 70.042 150.473 70.3009C147.751 70.5341 145.032 70.3583 142.319 69.7745C139.911 69.2563 137.51 69.1469 135.109 69.4444C132.453 69.7737 129.795 69.8693 127.137 69.7306C124.583 69.5972 122.029 69.505 119.476 69.4542C116.242 69.3899 113.297 67.3197 110.618 63.9278C109.449 62.4475 108.59 62.1505 108.044 62.1886C107.444 62.2306 106.512 62.712 105.308 64.4054C102.67 68.113 99.954 70.8561 97.1357 72.5138C94.1376 74.2772 91.02 74.4007 87.9756 72.8243C85.5034 71.5441 83.0467 70.6157 80.6055 70.0304C78.931 69.6289 77.4001 68.5574 75.9971 67.0362C74.5899 65.5105 73.2334 63.4489 71.9131 60.9024C71.3091 59.7376 70.7855 59.0838 70.3887 58.7706C70.0556 58.5078 69.9413 58.5668 69.8867 58.586C69.698 58.6522 69.2831 58.9233 68.708 59.7804C68.1543 60.6056 67.5595 61.8125 66.9375 63.4483C65.6417 66.8562 64.2517 69.4172 62.6738 70.8126C61.8529 71.5386 60.8777 72.0401 59.7695 72.0528C58.6584 72.0655 57.6748 71.5844 56.8457 70.8702C54.4904 68.8416 52.3253 68.1201 50.293 68.3624C47.5267 68.6923 44.7627 68.481 42.0127 67.7364C39.1897 66.9721 36.4317 65.4364 33.7373 63.2003C33.2488 62.7949 32.8577 62.6391 32.5605 62.5978C32.2805 62.5589 31.9621 62.6039 31.5645 62.8233C30.6849 63.3088 29.5704 64.5667 28.3174 66.9894C27.6389 68.3011 26.9201 69.3944 26.1436 70.2091C25.3699 71.0206 24.4502 71.6471 23.374 71.8243C21.0928 72.1998 19.3187 70.4749 18.002 68.3624C15.4508 64.2697 12.9033 60.5116 10.3604 57.087C9.85546 56.4072 9.38678 56.1046 8.98438 55.9874C8.58943 55.8726 8.06992 55.8815 7.35156 56.1827C5.82651 56.8222 3.80325 58.6114 1.29395 61.9083L0.84375 62.5001H0C-0.828427 62.5001 -1.5 61.8285 -1.5 61.0001C-1.5 60.4784 -1.23316 60.0198 -0.829102 59.7511C1.6379 56.5657 3.9734 54.3461 6.19141 53.4161C7.38373 52.9162 8.61843 52.7568 9.82129 53.1065C11.0166 53.4541 11.9897 54.2488 12.7695 55.2989C15.3665 58.7963 17.9591 62.6223 20.5479 66.7755C21.8011 68.786 22.5979 68.9119 22.8867 68.8644C23.0954 68.8299 23.4607 68.6758 23.9717 68.1398C24.4799 67.6066 25.046 66.7837 25.6523 65.6114C26.9692 63.0654 28.4249 61.1291 30.1152 60.1964C31.0023 59.7069 31.969 59.4865 32.9736 59.6261C33.9615 59.7634 34.8568 60.2307 35.6533 60.8917C38.0986 62.921 40.4802 64.2137 42.7969 64.8409C45.1869 65.488 47.5638 65.666 49.9375 65.3829C53.0449 65.0124 56.0193 66.1986 58.8037 68.5968C59.2595 68.9894 59.5616 69.0548 59.7354 69.0528C59.9122 69.0508 60.2226 68.9758 60.6865 68.5655C61.6785 67.6882 62.8587 65.7328 64.1328 62.3819C64.7957 60.6386 65.4856 59.1981 66.2168 58.1085C66.9266 57.0507 67.7973 56.1394 68.8936 55.755C70.1241 55.3235 71.2959 55.6646 72.2471 56.4151C73.135 57.1158 73.8954 58.2087 74.5762 59.5216C75.8256 61.9314 77.0396 63.7414 78.2021 65.0021C79.3691 66.2673 80.4092 66.8977 81.3047 67.1124C84.0033 67.7594 86.6869 68.7789 89.3545 70.1603C91.4499 71.2454 93.4725 71.1875 95.6143 69.9278C97.9358 68.5624 100.361 66.1826 102.863 62.6661C104.228 60.7479 105.865 59.3329 107.836 59.1954C109.859 59.0544 111.571 60.2946 112.972 62.0675C115.432 65.1825 117.629 66.4173 119.535 66.4552C122.121 66.5066 124.707 66.5995 127.293 66.7345C129.775 66.864 132.257 66.7747 134.74 66.4669C137.479 66.1274 140.219 66.2532 142.95 66.8409C145.377 67.3632 147.798 67.5199 150.217 67.3126C152.337 67.1309 154.602 66.0152 157.018 63.7032C159.562 61.2681 162.108 58.6545 164.657 55.8624C166.058 54.3278 167.586 53.2431 169.259 52.8282Z" fill="black" stroke="white" stroke-opacity="0.2" stroke-width="3" stroke-linecap="round"/>
<path d="M242.321 98.0001C238.057 97.0944 234.294 97.5861 231.212 99.6983C225.855 103.37 220.502 107.391 215.151 111.759C212.703 113.758 210.416 114.531 208.245 114.349C206.051 114.165 203.701 112.983 201.192 110.515C198.413 107.78 195.54 105.928 192.565 105.093C189.563 104.25 186.554 104.471 183.597 105.72C178.389 107.919 173.196 109.372 168.016 110.086C162.793 110.806 157.571 111.006 152.351 110.69C146.772 110.351 141.216 111.409 135.698 113.827C133.429 114.822 131.211 114.81 128.936 113.786C126.598 112.734 124.123 110.574 121.542 107.12C118.792 103.44 115.836 101.063 112.623 100.489C109.318 99.8997 106.193 101.288 103.329 104.1C98.1545 109.179 93.1237 111.891 88.2383 112.487C82.849 113.145 77.4622 114.184 72.0781 115.603C67.0276 116.934 61.9879 116.845 56.9297 115.331C51.7937 113.794 46.6217 111.177 41.4131 107.451C38.5685 105.417 35.6291 104.284 32.6133 104.177C29.593 104.07 26.6353 104.996 23.7676 106.844C18.6399 110.148 13.5917 111.776 8.60449 111.826C6.01933 111.852 4.24935 111.564 3.15527 111.087C2.14859 110.648 1.86505 110.136 1.81543 109.58L1.51367 104.5H0C-0.82843 104.5 -1.5 105.172 -1.5 106C-1.5 106.22 -1.45034 106.428 -1.36523 106.616L-1.17773 109.793L-1.17578 109.813L-1.1748 109.833C-1.00963 111.744 0.198558 113.069 1.95508 113.836C3.62757 114.566 5.90063 114.854 8.63477 114.826C14.2875 114.769 19.8803 112.917 25.3926 109.365C27.8447 107.786 30.2072 107.093 32.5068 107.175C34.8108 107.257 37.1917 108.12 39.667 109.891C45.0982 113.776 50.5665 116.558 56.0703 118.205C61.6518 119.876 67.2526 119.977 72.8418 118.504C78.0976 117.119 83.351 116.106 88.6016 115.465C94.3561 114.763 99.9653 111.605 105.431 106.24C107.886 103.83 110.082 103.083 112.097 103.442C114.203 103.819 116.568 105.476 119.139 108.916C121.878 112.582 124.722 115.179 127.704 116.522C130.749 117.892 133.852 117.911 136.902 116.574C142.024 114.329 147.107 113.377 152.169 113.684C157.588 114.013 163.008 113.804 168.425 113.058C173.885 112.305 179.332 110.778 184.764 108.483C187.126 107.486 189.438 107.331 191.755 107.982C194.1 108.64 196.548 110.153 199.088 112.652C201.899 115.419 204.87 117.077 207.995 117.339C211.144 117.603 214.177 116.426 217.049 114.082C222.338 109.763 227.625 105.794 232.908 102.173C235.146 100.639 238.016 100.152 241.698 100.935C245.413 101.724 249.862 103.791 255.07 107.25L255.447 107.5H256C256.828 107.5 257.5 106.829 257.5 106C257.5 105.33 257.06 104.764 256.454 104.571C251.199 101.112 246.481 98.8838 242.321 98.0001Z" fill="black" stroke="white" stroke-opacity="0.2" stroke-width="3" stroke-linecap="round"/>
<path d="M242.321 188C238.057 187.094 234.294 187.586 231.212 189.698C225.855 193.37 220.502 197.391 215.151 201.759C212.703 203.758 210.416 204.531 208.245 204.349C206.051 204.165 203.701 202.983 201.192 200.515C198.413 197.78 195.54 195.928 192.565 195.093C189.563 194.25 186.554 194.471 183.597 195.72C178.389 197.919 173.196 199.372 168.016 200.086C162.793 200.806 157.571 201.006 152.351 200.69C146.772 200.351 141.216 201.409 135.698 203.827C133.429 204.822 131.211 204.81 128.936 203.786C126.598 202.734 124.123 200.574 121.542 197.12C118.792 193.44 115.836 191.063 112.623 190.489C109.318 189.9 106.193 191.288 103.329 194.1C98.1545 199.179 93.1237 201.891 88.2383 202.487C82.849 203.145 77.4622 204.184 72.0781 205.603C67.0276 206.934 61.9879 206.845 56.9297 205.331C51.7937 203.794 46.6217 201.177 41.4131 197.451C38.5685 195.417 35.6291 194.284 32.6133 194.177C29.593 194.07 26.6353 194.996 23.7676 196.844C18.6399 200.148 13.5917 201.776 8.60449 201.826C6.01933 201.852 4.24935 201.564 3.15527 201.087C2.14859 200.648 1.86505 200.136 1.81543 199.58L1.51367 194.5H0C-0.82843 194.5 -1.5 195.172 -1.5 196C-1.5 196.22 -1.45034 196.428 -1.36523 196.616L-1.17773 199.793L-1.17578 199.813L-1.1748 199.833C-1.00963 201.744 0.198558 203.069 1.95508 203.836C3.62757 204.566 5.90063 204.854 8.63477 204.826C14.2875 204.769 19.8803 202.917 25.3926 199.365C27.8447 197.786 30.2072 197.093 32.5068 197.175C34.8108 197.257 37.1917 198.12 39.667 199.891C45.0982 203.776 50.5665 206.558 56.0703 208.205C61.6518 209.876 67.2526 209.977 72.8418 208.504C78.0976 207.119 83.351 206.106 88.6016 205.465C94.3561 204.763 99.9653 201.605 105.431 196.24C107.886 193.83 110.082 193.083 112.097 193.442C114.203 193.819 116.568 195.476 119.139 198.916C121.878 202.582 124.722 205.179 127.704 206.522C130.749 207.892 133.852 207.911 136.902 206.574C142.024 204.329 147.107 203.377 152.169 203.684C157.588 204.013 163.008 203.804 168.425 203.058C173.885 202.305 179.332 200.778 184.764 198.483C187.126 197.486 189.438 197.331 191.755 197.982C194.1 198.64 196.548 200.153 199.088 202.652C201.899 205.419 204.87 207.077 207.995 207.339C211.144 207.603 214.177 206.426 217.049 204.082C222.338 199.763 227.625 195.794 232.908 192.173C235.146 190.639 238.016 190.152 241.698 190.935C245.413 191.724 249.862 193.791 255.07 197.25L255.447 197.5H256C256.828 197.5 257.5 196.829 257.5 196C257.5 195.33 257.06 194.764 256.454 194.571C251.199 191.112 246.481 188.884 242.321 188Z" fill="black" stroke="white" stroke-opacity="0.2" stroke-width="3" stroke-linecap="round"/>
<path d="M169.259 142.828C170.981 142.401 172.67 142.73 174.246 143.675C176.626 145.101 178.938 145.788 181.199 145.81C183.056 145.827 184.705 146.837 186.139 148.378C187.575 149.922 188.938 152.146 190.254 154.964C190.868 156.279 191.456 157.273 192.007 157.981C192.565 158.698 193.02 159.039 193.343 159.178C193.61 159.293 193.826 159.293 194.091 159.181C194.412 159.045 194.865 158.708 195.423 157.994C198.084 154.587 200.886 152.276 203.865 151.34C206.465 150.523 209.066 149.795 211.667 149.155C213.437 148.72 215.152 149.138 216.722 150.202C218.25 151.238 219.668 152.896 221.008 155.042C222.257 157.042 223.115 157.327 223.494 157.303C223.702 157.289 224.039 157.185 224.516 156.757C224.998 156.324 225.548 155.626 226.146 154.592C227.471 152.3 228.991 150.554 230.816 149.932C232.861 149.235 234.728 150.093 236.24 151.678C237.366 152.857 238.27 153.201 238.97 153.182C239.682 153.162 240.61 152.757 241.754 151.497C243.193 149.912 244.89 148.885 246.819 149.013C248.711 149.139 250.344 150.349 251.741 152.074C252.354 152.831 252.873 153.386 253.303 153.765C253.475 153.917 253.621 154.025 253.737 154.106C253.742 154.088 253.749 154.07 253.754 154.051L254.673 149.5H256C256.828 149.5 257.5 150.172 257.5 151C257.5 151.294 257.414 151.567 257.269 151.798L256.686 154.687L256.682 154.707L256.677 154.729C256.519 155.41 256.227 156.174 255.616 156.706C254.898 157.332 254.015 157.41 253.237 157.18C252.543 156.975 251.897 156.525 251.318 156.015C250.719 155.486 250.082 154.793 249.409 153.963C248.237 152.515 247.298 152.052 246.62 152.007C245.98 151.964 245.106 152.268 243.976 153.514C242.55 155.085 240.908 156.131 239.051 156.181C237.181 156.231 235.515 155.262 234.07 153.749C233.013 152.641 232.31 152.591 231.784 152.771C231.039 153.025 229.989 153.939 228.744 156.093C228.057 157.281 227.322 158.271 226.52 158.99C225.712 159.715 224.763 160.228 223.687 160.297C221.496 160.438 219.784 158.748 218.463 156.632C217.233 154.662 216.08 153.392 215.038 152.686C214.038 152.008 213.183 151.872 212.383 152.068C209.844 152.693 207.305 153.404 204.765 154.202C202.604 154.881 200.266 156.668 197.787 159.841C197.06 160.772 196.228 161.532 195.264 161.942C194.243 162.375 193.175 162.372 192.157 161.934C191.195 161.52 190.365 160.757 189.639 159.822C188.904 158.878 188.207 157.67 187.536 156.234C186.282 153.549 185.075 151.64 183.941 150.421C182.805 149.199 181.884 148.815 181.171 148.809C178.293 148.782 175.465 147.903 172.704 146.248C171.711 145.653 170.829 145.53 169.981 145.74C169.084 145.963 168.042 146.604 166.873 147.885C164.282 150.723 161.688 153.385 159.092 155.87C156.367 158.478 153.493 160.042 150.473 160.301C147.751 160.534 145.032 160.358 142.319 159.775C139.911 159.256 137.51 159.147 135.109 159.444C132.453 159.774 129.795 159.869 127.137 159.731C124.583 159.597 122.029 159.505 119.476 159.454C116.242 159.39 113.297 157.32 110.618 153.928C109.449 152.448 108.59 152.15 108.044 152.189C107.444 152.231 106.512 152.712 105.308 154.405C102.67 158.113 99.954 160.856 97.1357 162.514C94.1376 164.277 91.02 164.401 87.9756 162.824C85.5034 161.544 83.0467 160.616 80.6055 160.03C78.931 159.629 77.4001 158.557 75.9971 157.036C74.5899 155.51 73.2334 153.449 71.9131 150.902C71.3091 149.738 70.7855 149.084 70.3887 148.771C70.0556 148.508 69.9413 148.567 69.8867 148.586C69.698 148.652 69.2831 148.923 68.708 149.78C68.1543 150.606 67.5595 151.813 66.9375 153.448C65.6417 156.856 64.2517 159.417 62.6738 160.813C61.8529 161.539 60.8777 162.04 59.7695 162.053C58.6584 162.066 57.6748 161.584 56.8457 160.87C54.4904 158.842 52.3253 158.12 50.293 158.362C47.5267 158.692 44.7627 158.481 42.0127 157.736C39.1897 156.972 36.4317 155.436 33.7373 153.2C33.2488 152.795 32.8577 152.639 32.5605 152.598C32.2805 152.559 31.9621 152.604 31.5645 152.823C30.6849 153.309 29.5704 154.567 28.3174 156.989C27.6389 158.301 26.9201 159.394 26.1436 160.209C25.3699 161.021 24.4502 161.647 23.374 161.824C21.0928 162.2 19.3187 160.475 18.002 158.362C15.4508 154.27 12.9033 150.512 10.3604 147.087C9.85546 146.407 9.38678 146.105 8.98438 145.987C8.58943 145.873 8.06992 145.882 7.35156 146.183C5.82651 146.822 3.80325 148.611 1.29395 151.908L0.84375 152.5H0C-0.828427 152.5 -1.5 151.829 -1.5 151C-1.5 150.478 -1.23316 150.02 -0.829102 149.751C1.6379 146.566 3.9734 144.346 6.19141 143.416C7.38373 142.916 8.61843 142.757 9.82129 143.107C11.0166 143.454 11.9897 144.249 12.7695 145.299C15.3665 148.796 17.9591 152.622 20.5479 156.775C21.8011 158.786 22.5979 158.912 22.8867 158.864C23.0954 158.83 23.4607 158.676 23.9717 158.14C24.4799 157.607 25.046 156.784 25.6523 155.611C26.9692 153.065 28.4249 151.129 30.1152 150.196C31.0023 149.707 31.969 149.486 32.9736 149.626C33.9615 149.763 34.8568 150.231 35.6533 150.892C38.0986 152.921 40.4802 154.214 42.7969 154.841C45.1869 155.488 47.5638 155.666 49.9375 155.383C53.0449 155.012 56.0193 156.199 58.8037 158.597C59.2595 158.989 59.5616 159.055 59.7354 159.053C59.9122 159.051 60.2226 158.976 60.6865 158.566C61.6785 157.688 62.8587 155.733 64.1328 152.382C64.7957 150.639 65.4856 149.198 66.2168 148.109C66.9266 147.051 67.7973 146.139 68.8936 145.755C70.1241 145.324 71.2959 145.665 72.2471 146.415C73.135 147.116 73.8954 148.209 74.5762 149.522C75.8256 151.931 77.0396 153.741 78.2021 155.002C79.3691 156.267 80.4092 156.898 81.3047 157.112C84.0033 157.759 86.6869 158.779 89.3545 160.16C91.4499 161.245 93.4725 161.187 95.6143 159.928C97.9358 158.562 100.361 156.183 102.863 152.666C104.228 150.748 105.865 149.333 107.836 149.195C109.859 149.054 111.571 150.295 112.972 152.067C115.432 155.183 117.629 156.417 119.535 156.455C122.121 156.507 124.707 156.599 127.293 156.734C129.775 156.864 132.257 156.775 134.74 156.467C137.479 156.127 140.219 156.253 142.95 156.841C145.377 157.363 147.798 157.52 150.217 157.313C152.337 157.131 154.602 156.015 157.018 153.703C159.562 151.268 162.108 148.654 164.657 145.862C166.058 144.328 167.586 143.243 169.259 142.828Z" fill="black" stroke="white" stroke-opacity="0.2" stroke-width="3" stroke-linecap="round"/>
<path d="M169.259 232.828C170.981 232.401 172.67 232.73 174.246 233.675C176.626 235.101 178.938 235.788 181.199 235.81C183.056 235.827 184.705 236.837 186.139 238.378C187.575 239.922 188.938 242.146 190.254 244.964C190.868 246.279 191.456 247.273 192.007 247.981C192.565 248.698 193.02 249.039 193.343 249.178C193.61 249.293 193.826 249.293 194.091 249.181C194.412 249.045 194.865 248.708 195.423 247.994C198.084 244.587 200.886 242.276 203.865 241.34C206.465 240.523 209.066 239.795 211.667 239.155C213.437 238.72 215.152 239.138 216.722 240.202C218.25 241.238 219.668 242.896 221.008 245.042C222.257 247.042 223.115 247.327 223.494 247.303C223.702 247.289 224.039 247.185 224.516 246.757C224.998 246.324 225.548 245.626 226.146 244.592C227.471 242.3 228.991 240.554 230.816 239.932C232.861 239.235 234.728 240.093 236.24 241.678C237.366 242.857 238.27 243.201 238.97 243.182C239.682 243.162 240.61 242.757 241.754 241.497C243.193 239.912 244.89 238.885 246.819 239.013C248.711 239.139 250.344 240.349 251.741 242.074C252.354 242.831 252.873 243.386 253.303 243.765C253.475 243.917 253.621 244.025 253.737 244.106C253.742 244.088 253.749 244.07 253.754 244.051L254.673 239.5H256C256.828 239.5 257.5 240.172 257.5 241C257.5 241.294 257.414 241.567 257.269 241.798L256.686 244.687L256.682 244.707L256.677 244.729C256.519 245.41 256.227 246.174 255.616 246.706C254.898 247.332 254.015 247.41 253.237 247.18C252.543 246.975 251.897 246.525 251.318 246.015C250.719 245.486 250.082 244.793 249.409 243.963C248.237 242.515 247.298 242.052 246.62 242.007C245.98 241.964 245.106 242.268 243.976 243.514C242.55 245.085 240.908 246.131 239.051 246.181C237.181 246.231 235.515 245.262 234.07 243.749C233.013 242.641 232.31 242.591 231.784 242.771C231.039 243.025 229.989 243.939 228.744 246.093C228.057 247.281 227.322 248.271 226.52 248.99C225.712 249.715 224.763 250.228 223.687 250.297C221.496 250.438 219.784 248.748 218.463 246.632C217.233 244.662 216.08 243.392 215.038 242.686C214.038 242.008 213.183 241.872 212.383 242.068C209.844 242.693 207.305 243.404 204.765 244.202C202.604 244.881 200.266 246.668 197.787 249.841C197.06 250.772 196.228 251.532 195.264 251.942C194.243 252.375 193.175 252.372 192.157 251.934C191.195 251.52 190.365 250.757 189.639 249.822C188.904 248.878 188.207 247.67 187.536 246.234C186.282 243.549 185.075 241.64 183.941 240.421C182.805 239.199 181.884 238.815 181.171 238.809C178.293 238.782 175.465 237.903 172.704 236.248C171.711 235.653 170.829 235.53 169.981 235.74C169.084 235.963 168.042 236.604 166.873 237.885C164.282 240.723 161.688 243.385 159.092 245.87C156.367 248.478 153.493 250.042 150.473 250.301C147.751 250.534 145.032 250.358 142.319 249.775C139.911 249.256 137.51 249.147 135.109 249.444C132.453 249.774 129.795 249.869 127.137 249.731C124.583 249.597 122.029 249.505 119.476 249.454C116.242 249.39 113.297 247.32 110.618 243.928C109.449 242.448 108.59 242.15 108.044 242.189C107.444 242.231 106.512 242.712 105.308 244.405C102.67 248.113 99.954 250.856 97.1357 252.514C94.1376 254.277 91.02 254.401 87.9756 252.824C85.5034 251.544 83.0467 250.616 80.6055 250.03C78.931 249.629 77.4001 248.557 75.9971 247.036C74.5899 245.51 73.2334 243.449 71.9131 240.902C71.3091 239.738 70.7855 239.084 70.3887 238.771C70.0556 238.508 69.9413 238.567 69.8867 238.586C69.698 238.652 69.2831 238.923 68.708 239.78C68.1543 240.606 67.5595 241.813 66.9375 243.448C65.6417 246.856 64.2517 249.417 62.6738 250.813C61.8529 251.539 60.8777 252.04 59.7695 252.053C58.6584 252.066 57.6748 251.584 56.8457 250.87C54.4904 248.842 52.3253 248.12 50.293 248.362C47.5267 248.692 44.7627 248.481 42.0127 247.736C39.1897 246.972 36.4317 245.436 33.7373 243.2C33.2488 242.795 32.8577 242.639 32.5605 242.598C32.2805 242.559 31.9621 242.604 31.5645 242.823C30.6849 243.309 29.5704 244.567 28.3174 246.989C27.6389 248.301 26.9201 249.394 26.1436 250.209C25.3699 251.021 24.4502 251.647 23.374 251.824C21.0928 252.2 19.3187 250.475 18.002 248.362C15.4508 244.27 12.9033 240.512 10.3604 237.087C9.85546 236.407 9.38678 236.105 8.98438 235.987C8.58943 235.873 8.06992 235.882 7.35156 236.183C5.82651 236.822 3.80325 238.611 1.29395 241.908L0.84375 242.5H0C-0.828427 242.5 -1.5 241.829 -1.5 241C-1.5 240.478 -1.23316 240.02 -0.829102 239.751C1.6379 236.566 3.9734 234.346 6.19141 233.416C7.38373 232.916 8.61843 232.757 9.82129 233.107C11.0166 233.454 11.9897 234.249 12.7695 235.299C15.3665 238.796 17.9591 242.622 20.5479 246.775C21.8011 248.786 22.5979 248.912 22.8867 248.864C23.0954 248.83 23.4607 248.676 23.9717 248.14C24.4799 247.607 25.046 246.784 25.6523 245.611C26.9692 243.065 28.4249 241.129 30.1152 240.196C31.0023 239.707 31.969 239.486 32.9736 239.626C33.9615 239.763 34.8568 240.231 35.6533 240.892C38.0986 242.921 40.4802 244.214 42.7969 244.841C45.1869 245.488 47.5638 245.666 49.9375 245.383C53.0449 245.012 56.0193 246.199 58.8037 248.597C59.2595 248.989 59.5616 249.055 59.7354 249.053C59.9122 249.051 60.2226 248.976 60.6865 248.566C61.6785 247.688 62.8587 245.733 64.1328 242.382C64.7957 240.639 65.4856 239.198 66.2168 238.109C66.9266 237.051 67.7973 236.139 68.8936 235.755C70.1241 235.324 71.2959 235.665 72.2471 236.415C73.135 237.116 73.8954 238.209 74.5762 239.522C75.8256 241.931 77.0396 243.741 78.2021 245.002C79.3691 246.267 80.4092 246.898 81.3047 247.112C84.0033 247.759 86.6869 248.779 89.3545 250.16C91.4499 251.245 93.4725 251.187 95.6143 249.928C97.9358 248.562 100.361 246.183 102.863 242.666C104.228 240.748 105.865 239.333 107.836 239.195C109.859 239.054 111.571 240.295 112.972 242.067C115.432 245.183 117.629 246.417 119.535 246.455C122.121 246.507 124.707 246.599 127.293 246.734C129.775 246.864 132.257 246.775 134.74 246.467C137.479 246.127 140.219 246.253 142.95 246.841C145.377 247.363 147.798 247.52 150.217 247.313C152.337 247.131 154.602 246.015 157.018 243.703C159.562 241.268 162.108 238.654 164.657 235.862C166.058 234.328 167.586 233.243 169.259 232.828Z" fill="black" stroke="white" stroke-opacity="0.2" stroke-width="3" stroke-linecap="round"/>
</g>
<defs>
<clipPath id="clip0_10_24">
<rect width="256" height="256" fill="white"/>
</clipPath>
</defs>
</svg>
